HIERARCHY
ROOT Hips
{
	OFFSET 0.00000 0.00000 0.00000
	CHANNELS 6 Xposition Yposition Zposition Yrotation Zrotation Xrotation 
	JOINT Lumbar
	{
		OFFSET 0 0 0
		CHANNELS 3 Zrotation Xrotation Yrotation
		JOINT Neck
		{
			OFFSET 0.00 0.2701 0.00
			CHANNELS 3 Zrotation Xrotation Yrotation
			End Site
			{
				OFFSET 0.00 0.1379 0.00
			}
		}
		JOINT RightShoulder
		{
			OFFSET 0.0119 0.2289 0.1181
			CHANNELS 3 Zrotation Xrotation Yrotation
			JOINT RightElbow
			{
				OFFSET 0.00 -0.1475 0.00
				CHANNELS 2 Zrotation Yrotation
				JOINT RightWrist
				{
					OFFSET 0.00 -0.1605 0.00
					CHANNELS 2 Zrotation Xrotation
					End Site
					{
						OFFSET 0.0040 -0.1068 0.0006
					}
				}
			}
		}
		JOINT LeftShoulder
		{
			OFFSET 0.0119 0.2289 -0.1181
			CHANNELS 3 Zrotation Xrotation Yrotation
			JOINT LeftElbow
			{
				OFFSET 0.00 -0.1475 0.00
				CHANNELS 2 Zrotation Yrotation
				JOINT LeftWrist
				{
					OFFSET 0.00 -0.1605 0.00
					CHANNELS 2 Zrotation Xrotation
					End Site
					{
						OFFSET 0.0040 -0.1068 -0.0006
					}
				}
			}
		}
	}
	JOINT RightHip
	{
		OFFSET 0.0316 -0.0424 0.0458
		CHANNELS 3 Zrotation Xrotation Yrotation
		JOINT RightKnee
		{
			OFFSET 0.00 -0.2438 0.00
			CHANNELS 1 Zrotation
			JOINT RightAnkle
			{
				OFFSET 0.00 -0.2449 0.00
				CHANNELS 3 Zrotation Xrotation Yrotation
				End Site
				{
					OFFSET 0.1237 -0.0542 0.0051
				}
			}
		}
	}
	JOINT LeftHip
	{
		OFFSET 0.0316 -0.0424 -0.0458
		CHANNELS 3 Zrotation Xrotation Yrotation
		JOINT LeftKnee
		{
			OFFSET 0.00 -0.2438 0.00
			CHANNELS 1 Zrotation
			JOINT LeftAnkle
			{
				OFFSET 0.00 -0.2449 0.00
				CHANNELS 3 Zrotation Xrotation Yrotation
				End Site
				{
					OFFSET 0.1237 -0.0542 -0.0051
				}
			}
		}
	}
}
MOTION
Frames: 13
Frame Time: 0.02
-1.64835 -0.33164 -0.24006 1278.07019 -46.44297 25.49234 9.44556 10.73734 -22.62593 19.39336 5.05443 -2.11994 93.2813 -14.19761 45.74738 56.49579 89.61929 -6.36764 -9.9371 51.99216 2.69999 -22.95736 56.15899 -96.42897 -13.86475 7.43912 33.86371 -11.78333 -18.7096 -110.96718 -5.83585 -2.68707 -3.49821 123.10699 24.29437 14.70696 -139.6347 -5.84555 0.72174 2.57309
-1.6482 -0.33181 -0.23963 1277.80547 -46.38108 25.52642 9.24225 10.6365 -22.22096 19.4191 5.42216 -2.11994 94.39557 -12.00641 44.55985 57.33652 92.95685 -9.44412 -9.67939 52.01147 2.47775 -22.75976 56.64079 -97.52419 -14.96362 7.4617 33.80813 -11.88959 -18.43108 -111.09312 -5.80526 -2.71922 -3.51261 122.97492 24.10661 14.8403 -139.70887 -5.87236 0.835 2.6245
-1.64757 -0.33217 -0.23903 1277.64554 -46.39332 25.61242 8.94723 10.597 -21.69773 19.5215 5.91034 -2.11994 95.74368 -10.02027 42.87382 57.56559 98.00613 -13.86066 -9.28428 52.33405 2.14617 -22.604 57.10843 -99.56376 -16.68048 7.5774 33.90003 -12.05196 -18.23227 -111.36926 -5.76383 -2.76888 -3.53495 122.98118 24.23241 15.19519 -139.79966 -5.81331 0.85233 2.6307
-1.64714 -0.33245 -0.2385 1277.44822 -46.37903 25.67988 8.69399 10.53627 -21.22784 19.59383 6.34147 -2.11994 96.95664 -7.98644 41.39148 58.0593 102.11871 -17.55621 -8.96105 52.52877 1.86377 -22.43077 57.57786 -101.12702 -18.08245 7.64649 33.93919 -12.181 -17.9916 -111.58235 -5.72851 -2.80944 -3.55316 122.93472 24.23231 15.46006 -139.88169 -5.6967 0.86939 2.63463
-1.64679 -0.33269 -0.23797 1277.20627 -46.33593 25.72783 8.43784 10.44618 -20.75249 19.64707 6.78528 -2.11994 98.30133 -5.74022 39.99148 58.60967 106.89552 -21.73048 -8.60009 52.69089 1.57697 -22.24955 58.06127 -102.89503 -19.63978 7.73199 33.92195 -12.33983 -17.76689 -111.77607 -5.68822 -2.85493 -3.57361 122.84246 24.15612 15.68514 -139.96813 -5.93675 1.03482 2.71712
-1.64615 -0.33306 -0.23742 1277.08441 -46.36952 25.82884 8.16755 10.43301 -20.26502 19.75746 7.2292 -2.11994 99.41946 -3.99826 38.31256 58.89664 110.70092 -25.22319 -8.28443 52.9881 1.27703 -22.09625 58.51436 -104.45959 -21.01609 7.80624 34.05546 -12.45175 -17.53226 -112.04458 -5.65569 -2.8943 -3.59128 122.87899 24.31425 16.04322 -140.04945 -5.43556 0.86727 2.62567
-1.64483 -0.33377 -0.23691 1277.24758 -46.6018 26.05396 7.873 10.60853 -19.74999 20.01193 7.6557 -2.11994 99.90398 -3.53355 35.91802 58.60343 111.36709 -26.51203 -8.12575 53.59912 0.95322 -22.00064 58.88614 -105.22175 -21.73834 7.82504 34.57246 -12.41316 -17.2335 -112.48535 -5.64723 -2.91208 -3.59904 123.24446 25.05401 16.71993 -140.11416 -2.88157 0.00101 2.1474
-1.64324 -0.33461 -0.2364 1277.5317 -46.90773 26.33208 7.56914 10.86091 -19.23168 20.32013 8.07569 -2.11994 100.14289 -3.584 33.27459 58.06548 111.00557 -27.06765 -8.01758 54.33179 0.62324 -21.93357 59.22819 -105.74876 -22.25639 7.83006 35.23495 -12.32694 -16.92604 -112.99517 -5.64696 -2.92318 -3.60377 123.7337 26.01712 17.52084 -140.17275 0.40128 -1.2201 1.48646
-1.64177 -0.33538 -0.23588 1277.77428 -47.17637 26.59197 7.27475 11.08404 -18.73099 20.60054 8.49068 -2.11994 100.46075 -3.44248 30.78927 57.64262 111.13793 -27.95313 -7.88682 54.99762 0.3064 -21.85948 59.58622 -106.38694 -22.86765 7.8424 35.82814 -12.26791 -16.63488 -113.47171 -5.64291 -2.93758 -3.61002 124.16239 26.87224 18.26092 -140.23352 3.32862 -2.40795 0.85533
-1.64026 -0.3362 -0.23536 1277.96436 -47.46334 26.82916 6.95473 11.28584 -18.15883 20.89841 8.9435 -2.11994 100.92318 -3.12742 28.0927 57.1869 111.2104 -28.89613 -7.74892 55.72247 -0.05743 -21.76147 59.93613 -107.03433 -23.49716 7.85259 36.43994 -12.18822 -16.29463 -113.96252 -5.63867 -2.95139 -3.61591 124.61501 27.76777 19.02848 -140.2983 6.37142 -3.08442 0.43595
-1.6388 -0.33694 -0.23485 1278.29049 -47.72915 27.12532 6.68746 11.54886 -17.73523 21.17097 9.31443 -2.11994 101.0251 -3.29663 25.78824 56.74344 111.1491 -29.53212 -7.64072 56.34993 -0.32411 -21.71982 60.29248 -107.6015 -24.0343 7.8639 37.04564 -12.13848 -16.05311 -114.43685 -5.63697 -2.96473 -3.62179 125.04414 28.62536 19.76394 -140.35192 9.33413 -4.87788 -0.45359
-1.63751 -0.33745 -0.23435 1278.96817 -47.91368 27.57294 6.56575 11.96756 -17.73347 21.36587 9.4598 -2.11994 100.17281 -4.65097 24.5903 56.44862 110.89247 -29.45369 -7.59371 56.67107 -0.31361 -21.82424 60.70512 -107.93516 -24.3424 7.87137 37.5973 -12.19212 -16.09045 -114.858 -5.63991 -2.97711 -3.62773 125.38833 29.34594 20.39183 -140.38614 11.99294 -9.9339 -2.7131
-1.63627 -0.33787 -0.23387 1279.7771 -48.07479 28.07749 6.49861 12.44379 -17.88024 21.53193 9.52248 -2.11994 98.9687 -6.47865 23.80507 56.1677 110.54124 -29.09256 -7.57703 56.88963 -0.20559 -21.98481 61.11966 -108.20191 -24.56506 7.88157 38.13715 -12.27582 -16.22655 -115.25762 -5.64525 -2.98932 -3.63382 125.70205 30.01498 20.98004 -140.40749 14.52789 -16.05277 -5.41792
